<svg id="fast-food-burger-svgrepo-com" xmlns="http://www.w3.org/2000/svg" width="62.066" height="62" viewBox="0 0 62.066 62">
  <g id="Group_101" data-name="Group 101">
    <circle id="Ellipse_33" data-name="Ellipse 33" cx="31" cy="31" r="31" fill="#fee187"/>
    <circle id="Ellipse_34" data-name="Ellipse 34" cx="31" cy="31" r="31" fill="#fee187"/>
  </g>
  <g id="Group_102" data-name="Group 102" transform="translate(10.707 10.345)">
    <path id="Path_3326" data-name="Path 3326" d="M111.19,189.669a31.037,31.037,0,0,0,28.488-30.428l-14.1-13.923-6.345,4.082.907.907-10.563,6.306-21.254,4.9,2.9,6.052-.934.813Z" transform="translate(-88.319 -138.046)" fill="#ffc61b"/>
    <path id="Path_3327" data-name="Path 3327" d="M249.777,91.394l-1.6-2.543-.993-3.518-6.508.487,9.1,8.814Z" transform="translate(-222.203 -85.333)" fill="#ffc61b"/>
  </g>
  <path id="Path_3328" data-name="Path 3328" d="M248.95,91.761a.627.627,0,0,1-.595-.429l-3.305-9.917h-5.661a.627.627,0,0,1,0-1.254H245.5a.627.627,0,0,1,.595.429l3.448,10.345a.627.627,0,0,1-.4.793A.62.62,0,0,1,248.95,91.761Z" transform="translate(-209.815 -70.443)" fill="#930000"/>
  <path id="Path_3329" data-name="Path 3329" d="M260.59,166.361h9.8a.953.953,0,0,0,.947-.841l2.647-22.232a.954.954,0,0,0-.947-1.067H257.943a.954.954,0,0,0-.947,1.067l2.647,22.232A.954.954,0,0,0,260.59,166.361Z" transform="translate(-225.833 -124.98)" fill="#c92f00"/>
  <path id="Path_3330" data-name="Path 3330" d="M262.465,196.525l1.99,16.715a.954.954,0,0,0,.947.841h9.8a.954.954,0,0,0,.947-.841l1.99-16.715Z" transform="translate(-230.645 -172.699)" fill="#930000"/>
  <path id="Path_3331" data-name="Path 3331" d="M99.556,181.012a10.345,10.345,0,1,1,20.691,0Z" transform="translate(-87.486 -149.976)" fill="#e09112"/>
  <path id="Path_3332" data-name="Path 3332" d="M183.753,170.667c-.053,0-.1,0-.157,0v10.341h10.5A10.345,10.345,0,0,0,183.753,170.667Z" transform="translate(-161.338 -149.976)" fill="#ff5419"/>
  <path id="Path_3333" data-name="Path 3333" d="M96.97,305.457a10.638,10.638,0,0,0,.3,2.508,2.49,2.49,0,0,0,2.418,1.906h15.884a2.49,2.49,0,0,0,2.418-1.906,10.638,10.638,0,0,0,.3-2.508Z" transform="translate(-85.214 -268.425)" fill="#e09112"/>
  <path id="Path_3334" data-name="Path 3334" d="M183.6,305.457v4.414h8.1a2.49,2.49,0,0,0,2.418-1.906,10.638,10.638,0,0,0,.3-2.508Z" transform="translate(-161.338 -268.425)" fill="#ff5419"/>
  <path id="Path_3335" data-name="Path 3335" d="M87.058,259.448h20.691a1.724,1.724,0,0,0,1.724-1.724h0A1.724,1.724,0,0,0,107.749,256H87.058a1.724,1.724,0,0,0-1.724,1.724h0A1.724,1.724,0,0,0,87.058,259.448Z" transform="translate(-74.988 -224.964)" fill="#b54324"/>
  <path id="Path_3336" data-name="Path 3336" d="M194.1,256H183.6v3.448h10.5a1.724,1.724,0,1,0,0-3.448Z" transform="translate(-161.338 -224.964)" fill="#c92f00"/>
  <path id="Path_3337" data-name="Path 3337" d="M87.058,287.893h20.691a1.724,1.724,0,0,0,1.724-1.724h0a1.724,1.724,0,0,0-1.724-1.724H87.058a1.724,1.724,0,0,0-1.724,1.724h0A1.724,1.724,0,0,0,87.058,287.893Z" transform="translate(-74.988 -249.96)" fill="#d35933"/>
  <path id="Path_3338" data-name="Path 3338" d="M194.1,284.444H183.6v3.448h10.5a1.724,1.724,0,1,0,0-3.448Z" transform="translate(-161.338 -249.959)" fill="#b54324"/>
</svg>
