<svg xmlns="http://www.w3.org/2000/svg" width="35.5" height="32" viewBox="0 0 35.5 32">
  <path id="Combined-Shape" d="M25.443,0C31.458,0,35.5,3.8,35.5,9.466V22.534C35.5,28.2,31.458,32,25.441,32H10.055C4.04,32,0,28.2,0,22.534V9.466C0,3.8,4.04,0,10.055,0Zm0,2.4H10.055c-4.491,0-7.393,2.773-7.393,7.066V22.534c0,4.293,2.9,7.066,7.393,7.066H25.441c4.493,0,7.4-2.773,7.4-7.066V9.466C32.838,5.173,29.934,2.4,25.443,2.4Zm-.685,12.022a1.693,1.693,0,0,1,1.775,1.6,1.789,1.789,0,0,1-3.559,0,1.686,1.686,0,0,1,1.766-1.6Zm-7.117,0a1.693,1.693,0,0,1,1.775,1.6,1.789,1.789,0,0,1-3.557,0,1.685,1.685,0,0,1,1.766-1.6Zm-7.116,0a1.693,1.693,0,0,1,1.775,1.6,1.693,1.693,0,0,1-1.775,1.6,1.7,1.7,0,0,1-1.784-1.6,1.686,1.686,0,0,1,1.768-1.6Z" fill="#e9814c" fill-rule="evenodd"/>
</svg>
